<svg width="26" height="36" viewBox="0 0 26 36" fill="none" xmlns="http://www.w3.org/2000/svg">
<path fill-rule="evenodd" clip-rule="evenodd" d="M25.5147 33.3603V4.57075C25.5241 3.45628 25.0904 2.38371 24.309 1.58901C23.5276 0.79432 22.4625 0.342606 21.348 0.333252H4.68135C3.56688 0.342606 2.50177 0.79432 1.72036 1.58901C0.938952 2.38371 0.505255 3.45628 0.514687 4.57075V33.3603C0.41564 34.1916 0.823771 35.0014 1.55086 35.4163C2.27795 35.8312 3.18276 35.7706 3.84802 35.2624L11.7647 28.427C12.4783 27.7829 13.5635 27.7829 14.2772 28.427L22.1814 35.2645C22.8469 35.7731 23.7523 35.8336 24.4796 35.4181C25.207 35.0026 25.6147 34.192 25.5147 33.3603Z" fill="#999999" fill-opacity="0.6"/>
</svg>
