<svg width="74" height="74" viewBox="0 0 74 74" fill="none" xmlns="http://www.w3.org/2000/svg">
<path d="M25.1348 53.3359H24.5898C24.6328 54.3008 24.8809 55.0703 25.334 55.6445C25.7715 55.0625 26.0078 54.293 26.043 53.3359H25.5332V51.9883H28.6621V53.3359H27.6719C27.6992 53.9805 27.832 54.5527 28.0703 55.0527C28.3086 55.5527 28.6895 55.9375 29.2129 56.207L28.3457 57.4258C27.6504 57.0508 27.1504 56.4492 26.8457 55.6211C26.5371 56.5117 26.0332 57.1523 25.334 57.543C24.6426 57.1523 24.1406 56.5273 23.8281 55.668C23.5234 56.4883 23.0293 57.0742 22.3457 57.4258L21.4551 56.207C22.4238 55.6992 22.9473 54.7422 23.0254 53.3359H21.9004V51.9883H25.1348V53.3359ZM23.4824 58.082H31.0176V62.0078H23.4824V58.082ZM29.3652 60.6602V59.3945H25.1348V60.6602H29.3652ZM29.3301 51.3789H31.0176V57.6016H29.3301V51.3789ZM40.6621 55.6211H37.8262V56.5352H41.9043V57.8828H32.0957V56.5352H36.127V55.6211H33.291V51.7891H40.6621V55.6211ZM33.1855 58.5742H40.7207V62.125H39.0332V59.8867H33.1855V58.5742ZM39.0098 54.3086V53.0898H34.9434V54.3086H39.0098ZM52.2871 58.4219H42.4551V57.0859H46.5449V56.4297H43.6621V53.3594H49.4277V52.8555H43.6504V51.5547H51.127V54.5664H45.3379V55.1406H51.3145V56.4297H48.209V57.0859H52.2871V58.4219ZM43.5566 58.9609H51.1855V62.0898H49.4863V60.2852H43.5566V58.9609Z" fill="#999999" fill-opacity="0.6"/>
<path fill-rule="evenodd" clip-rule="evenodd" d="M48.1557 40.0449V14.5889C48.1641 13.6035 47.7775 12.6551 47.081 11.9524C46.3844 11.2497 45.4349 10.8503 44.4415 10.842H29.5843C28.5908 10.8503 27.6414 11.2497 26.9448 11.9524C26.2482 12.6551 25.8616 13.6035 25.87 14.5889V40.0449C25.7817 40.7799 26.1456 41.496 26.7937 41.8628C27.4418 42.2297 28.2484 42.1761 28.8415 41.7268L35.8986 35.6828C36.5348 35.1133 37.5021 35.1133 38.1383 35.6828L45.1843 41.7286C45.7776 42.1783 46.5847 42.2318 47.2331 41.8644C47.8814 41.4971 48.2449 40.7803 48.1557 40.0449Z" stroke="#999999" stroke-opacity="0.6" stroke-width="1.5" stroke-linecap="round" stroke-linejoin="round"/>
</svg>
