<svg width="74" height="74" viewBox="0 0 74 74" fill="none" xmlns="http://www.w3.org/2000/svg">
<path d="M30.4609 52.5156L32.6523 57.8594H32.7461L34.9375 52.5156H37.4102V61H35.4648V55.7266H35.3945L33.332 60.9531H32.0664L30.0039 55.7031H29.9336V61H27.9883V52.5156H30.4609ZM40.4922 52.5156L42.3203 56.0781H42.3906L44.2188 52.5156H46.4453L43.3516 58.1289V61H41.3594V58.1289L38.2539 52.5156H40.4922Z" fill="#999999" fill-opacity="0.6"/>
<path fill-rule="evenodd" clip-rule="evenodd" d="M43.5005 18.5C43.5005 22.0208 40.5903 24.875 37.0005 24.875C33.4106 24.875 30.5005 22.0208 30.5005 18.5C30.5005 14.9792 33.4106 12.125 37.0005 12.125C38.7244 12.125 40.3777 12.7966 41.5967 13.9922C42.8157 15.1877 43.5005 16.8092 43.5005 18.5Z" stroke="#999999" stroke-opacity="0.6" stroke-width="1.5" stroke-linecap="round" stroke-linejoin="round"/>
<path fill-rule="evenodd" clip-rule="evenodd" d="M42.5624 29.125H31.4388C30.7394 29.1259 30.0452 29.2415 29.3848 29.4671C21.7798 32.0405 29.0143 41.875 37.0006 41.875C44.9869 41.875 52.2214 32.0405 44.6143 29.4671C43.9545 29.2417 43.261 29.1261 42.5624 29.125Z" stroke="#999999" stroke-opacity="0.6" stroke-width="1.5" stroke-linecap="round" stroke-linejoin="round"/>
</svg>
