<svg width="74" height="74" viewBox="0 0 74 74" fill="none" xmlns="http://www.w3.org/2000/svg">
<path d="M32.6016 53.2305H29.4258V55.1934C30.332 55.1855 31.0898 55.1562 31.6992 55.1055C32.3086 55.0547 32.9102 54.9688 33.5039 54.8477L33.6797 56.1484C33.0508 56.2969 32.3867 56.3926 31.6875 56.4355C30.9883 56.4785 29.9805 56.5 28.6641 56.5H27.75V51.9062H32.6016V53.2305ZM28.7578 57.0977H35.9766V60.168H30.4336V60.6602H36.2578V62.0078H28.7695V58.9258H34.2891V58.4336H28.7578V57.0977ZM34.2891 51.3672H35.9766V53.3242H37.3711V54.6953H35.9766V56.6992H34.2891V51.3672ZM42.9609 55.4453H39.8555V56.4297C40.6211 56.4258 41.2578 56.4062 41.7656 56.3711C42.2734 56.3359 42.7773 56.2695 43.2773 56.1719L43.4297 57.5195C42.8555 57.6211 42.2578 57.6875 41.6367 57.7188C41.0156 57.75 40.1406 57.7695 39.0117 57.7773H38.1914V54.2148H41.2734V53.3008H38.1797V51.9883H42.9609V55.4453ZM39.4219 58.4453H46.8867V62.125H45.2109V59.793H39.4219V58.4453ZM43.5469 55.1406H45.2109V54.168H43.5469V52.832H45.2109V51.3789H46.8867V58.0117H45.2109V56.4648H43.5469V55.1406Z" fill="#999999" fill-opacity="0.6"/>
<path fill-rule="evenodd" clip-rule="evenodd" d="M23.875 23.2223V34.5556C23.875 38.7285 27.2329 42.1112 31.375 42.1112H42.625C46.7671 42.1112 50.125 38.7285 50.125 34.5556V23.2223C50.125 19.0495 46.7671 15.6667 42.625 15.6667H31.375C27.2329 15.6667 23.875 19.0495 23.875 23.2223Z" stroke="#999999" stroke-opacity="0.6" stroke-width="1.5" stroke-linecap="round" stroke-linejoin="round"/>
<path d="M41.875 17.5556C41.875 17.9698 42.2108 18.3056 42.625 18.3056C43.0392 18.3056 43.375 17.9698 43.375 17.5556H41.875ZM43.375 11.8889C43.375 11.4747 43.0392 11.1389 42.625 11.1389C42.2108 11.1389 41.875 11.4747 41.875 11.8889H43.375ZM30.625 17.5556C30.625 17.9698 30.9608 18.3056 31.375 18.3056C31.7892 18.3056 32.125 17.9698 32.125 17.5556H30.625ZM32.125 11.8889C32.125 11.4747 31.7892 11.1389 31.375 11.1389C30.9608 11.1389 30.625 11.4747 30.625 11.8889H32.125ZM30.625 25.6514C30.625 26.0656 30.9608 26.4014 31.375 26.4014C31.7892 26.4014 32.125 26.0656 32.125 25.6514H30.625ZM37 25.6514L37.7487 25.6956C37.7496 25.6809 37.75 25.6661 37.75 25.6514H37ZM35.807 28.0718L36.2971 28.6395L36.2971 28.6395L35.807 28.0718ZM33.25 28.8889L33.1789 28.1423C32.794 28.1789 32.5 28.5022 32.5 28.8889C32.5 29.2756 32.794 29.5989 33.1789 29.6355L33.25 28.8889ZM35.807 29.706L36.2971 29.1383L35.807 29.706ZM37 32.1265H37.75C37.75 32.1117 37.7496 32.0969 37.7487 32.0822L37 32.1265ZM32.125 32.1265C32.125 31.7123 31.7892 31.3765 31.375 31.3765C30.9608 31.3765 30.625 31.7123 30.625 32.1265H32.125ZM40.2599 24.2733C39.9463 24.544 39.9116 25.0176 40.1823 25.3311C40.453 25.6447 40.9266 25.6794 41.2401 25.4087L40.2599 24.2733ZM42.625 23.2222H43.375C43.375 22.9289 43.2039 22.6624 42.9372 22.5403C42.6704 22.4182 42.3569 22.4628 42.1349 22.6546L42.625 23.2222ZM41.875 34.5556C41.875 34.9698 42.2108 35.3056 42.625 35.3056C43.0392 35.3056 43.375 34.9698 43.375 34.5556H41.875ZM43.375 17.5556V11.8889H41.875V17.5556H43.375ZM32.125 17.5556V11.8889H30.625V17.5556H32.125ZM32.125 25.6514C32.125 25.0872 32.3584 24.6955 32.7105 24.4252C33.0833 24.1392 33.6171 23.9732 34.1875 23.9732C34.7579 23.9732 35.2917 24.1392 35.6645 24.4252C36.0166 24.6955 36.25 25.0872 36.25 25.6514H37.75C37.75 24.5968 37.2802 23.7744 36.5777 23.2352C35.8958 22.7119 35.0233 22.4732 34.1875 22.4732C33.3517 22.4732 32.4792 22.7119 31.7973 23.2352C31.0948 23.7744 30.625 24.5968 30.625 25.6514H32.125ZM36.2513 25.6071C36.2078 26.3422 35.8698 27.0267 35.3169 27.5041L36.2971 28.6395C37.1582 27.8961 37.6814 26.8333 37.7487 25.6956L36.2513 25.6071ZM35.3169 27.5041C34.7641 27.9813 34.0438 28.2111 33.3211 28.1423L33.1789 29.6355C34.3103 29.7432 35.4358 29.3832 36.2971 28.6395L35.3169 27.5041ZM33.3211 29.6355C34.0438 29.5667 34.7641 29.7965 35.3169 30.2737L36.2971 29.1383C35.4358 28.3947 34.3103 28.0346 33.1789 28.1423L33.3211 29.6355ZM35.3169 30.2737C35.8698 30.7511 36.2078 31.4356 36.2513 32.1707L37.7487 32.0822C37.6814 30.9445 37.1582 29.8818 36.2971 29.1383L35.3169 30.2737ZM36.25 32.1265C36.25 32.6907 36.0166 33.0824 35.6645 33.3526C35.2917 33.6387 34.7579 33.8046 34.1875 33.8046C33.6171 33.8046 33.0833 33.6387 32.7105 33.3526C32.3584 33.0824 32.125 32.6907 32.125 32.1265H30.625C30.625 33.181 31.0948 34.0034 31.7973 34.5426C32.4792 35.0659 33.3517 35.3046 34.1875 35.3046C35.0233 35.3046 35.8958 35.0659 36.5777 34.5426C37.2802 34.0034 37.75 33.181 37.75 32.1265H36.25ZM41.2401 25.4087L43.1151 23.7899L42.1349 22.6546L40.2599 24.2733L41.2401 25.4087ZM41.875 23.2222V34.5556H43.375V23.2222H41.875Z" fill="#999999" fill-opacity="0.6"/>
</svg>
