<svg width="32" height="34" viewBox="0 0 32 34" fill="none" xmlns="http://www.w3.org/2000/svg">
<path fill-rule="evenodd" clip-rule="evenodd" d="M2.34392 20.7624L27.9759 33.6774C28.6456 34.0691 29.4652 34.1063 30.1677 33.7769C30.8702 33.4475 31.3656 32.7935 31.4927 32.0281C31.4839 31.7738 31.4226 31.5241 31.3127 31.2946L26.4324 19.5046C26.1875 18.7217 26.0542 17.9082 26.0364 17.0881C26.0541 16.268 26.1874 15.4545 26.4324 14.6716L31.3127 2.88161C31.4226 2.65214 31.4839 2.40241 31.4927 2.14811C31.3647 1.3838 30.8694 0.731148 30.1677 0.402298C29.4659 0.0734556 28.6474 0.110393 27.9782 0.50111L2.34392 13.4161C0.914427 14.0801 -1.36426e-05 15.5131 -1.37804e-05 17.0892C-1.39182e-05 18.6654 0.914426 20.0984 2.34392 20.7624Z" fill="#FF8500"/>
</svg>
