<svg width="28" height="28" viewBox="0 0 28 28" fill="none" xmlns="http://www.w3.org/2000/svg">
<path fill-rule="evenodd" clip-rule="evenodd" d="M17.5005 9.33325C17.5005 11.2662 15.9335 12.8333 14.0005 12.8333C12.0675 12.8333 10.5005 11.2662 10.5005 9.33325C10.5005 7.40026 12.0675 5.83325 14.0005 5.83325C14.9287 5.83325 15.819 6.202 16.4754 6.85838C17.1317 7.51476 17.5005 8.40499 17.5005 9.33325Z" stroke="#2D2D2D" stroke-width="1.5" stroke-linecap="round" stroke-linejoin="round"/>
<path fill-rule="evenodd" clip-rule="evenodd" d="M16.9951 15.1665H11.0054C10.6289 15.167 10.255 15.2305 9.89942 15.3543C5.80442 16.7672 9.69992 22.1665 14.0003 22.1665C18.3006 22.1665 22.1961 16.7672 18.0999 15.3543C17.7447 15.2306 17.3713 15.1671 16.9951 15.1665Z" stroke="#2D2D2D" stroke-width="1.5" stroke-linecap="round" stroke-linejoin="round"/>
</svg>
