<svg width="26" height="26" viewBox="0 0 26 26" fill="none" xmlns="http://www.w3.org/2000/svg">
<path fill-rule="evenodd" clip-rule="evenodd" d="M7.37218 17.0232C6.43527 16.0666 5.7998 14.8559 5.5446 13.5414C5.28729 12.2232 5.41942 10.8587 5.92485 9.61433C6.42596 8.37699 7.2815 7.3153 8.38402 6.56258C10.6209 5.0348 13.5658 5.0348 15.8027 6.56258C16.9052 7.3153 17.7607 8.37699 18.2618 9.61433C18.7673 10.8587 18.8994 12.2232 18.6421 13.5414C18.3869 14.8559 17.7514 16.0666 16.8145 17.0232C15.5737 18.2965 13.8712 19.0147 12.0933 19.0147C10.3155 19.0147 8.61298 18.2965 7.37218 17.0232V17.0232Z" stroke="#7E7E7E" stroke-width="2" stroke-linecap="round" stroke-linejoin="round"/>
<path d="M12.0812 7.61681C11.5319 7.675 11.1339 8.1674 11.1921 8.71661C11.2503 9.26582 11.7427 9.66387 12.2919 9.60567L12.0812 7.61681ZM13.9339 10.573C14.1492 11.0816 14.736 11.3193 15.2446 11.104C15.7532 10.8887 15.991 10.3019 15.7757 9.79331L13.9339 10.573ZM17.6196 16.2116C17.2287 15.8214 16.5956 15.822 16.2054 16.2128C15.8152 16.6037 15.8158 17.2369 16.2066 17.6271L17.6196 16.2116ZM19.877 21.2909C20.2678 21.6811 20.901 21.6805 21.2912 21.2896C21.6814 20.8988 21.6808 20.2656 21.2899 19.8754L19.877 21.2909ZM12.2919 9.60567C12.9925 9.53143 13.6592 9.92421 13.9339 10.573L15.7757 9.79331C15.1577 8.33353 13.6575 7.44977 12.0812 7.61681L12.2919 9.60567ZM16.2066 17.6271L19.877 21.2909L21.2899 19.8754L17.6196 16.2116L16.2066 17.6271Z" fill="#7E7E7E"/>
</svg>
