<svg width="50" height="50" viewBox="0 0 50 50" fill="none" xmlns="http://www.w3.org/2000/svg">
<path fill-rule="evenodd" clip-rule="evenodd" d="M37.5147 41.3603V12.5708C37.5241 11.4563 37.0904 10.3837 36.309 9.58901C35.5276 8.79432 34.4625 8.34261 33.348 8.33325H16.6814C15.5669 8.34261 14.5018 8.79432 13.7204 9.58901C12.939 10.3837 12.5053 11.4563 12.5147 12.5708V41.3603C12.4156 42.1916 12.8238 43.0014 13.5509 43.4163C14.278 43.8312 15.1828 43.7706 15.848 43.2624L23.7647 36.427C24.4783 35.7829 25.5635 35.7829 26.2772 36.427L34.1814 43.2645C34.8469 43.7731 35.7523 43.8336 36.4796 43.4181C37.207 43.0026 37.6147 42.192 37.5147 41.3603Z" fill="#999999" fill-opacity="0.6"/>
</svg>
