<svg width="74" height="74" viewBox="0 0 74 74" fill="none" xmlns="http://www.w3.org/2000/svg">
<path d="M22.1523 52.375C22.1523 53.625 22.0273 54.7246 21.7773 55.6738C21.5312 56.623 21.0586 57.5078 20.3594 58.3281C19.6602 59.1484 18.6602 59.8867 17.3594 60.543L16.4453 59.2773C17.2852 58.8555 17.9727 58.4102 18.5078 57.9414C19.0469 57.4688 19.4668 56.9512 19.7676 56.3887L16.7617 56.6641L16.5742 55.2227L20.2773 55.0176C20.3711 54.6074 20.4355 54.1719 20.4707 53.7109H17.1484V52.375H22.1523ZM23.3828 51.3672H25.0703V55.4102H26.5117V56.793H25.0703V62.0898H23.3828V51.3672ZM31.2344 53.8516H28.8086V55.4102H30.8359V56.6875H28.8086V58.4688C29.3555 58.457 29.8438 58.4355 30.2734 58.4043C30.7031 58.3691 31.1445 58.3164 31.5977 58.2461L31.7383 59.5938C31.1797 59.6914 30.6348 59.7539 30.1035 59.7812C29.5762 59.8086 28.8555 59.8242 27.9414 59.8281H27.2031V52.5273H31.2344V53.8516ZM31.3047 55.2461H32.3945V51.5312H33.9531V61.6562H32.3945V56.582H31.3047V55.2461ZM34.6445 51.3672H36.2617V62.125H34.6445V51.3672ZM46.2109 53.2539C46.2109 53.8672 46.2031 54.4043 46.1875 54.8652C46.1758 55.3223 46.1367 55.8555 46.0703 56.4648C46.0078 57.0742 45.9102 57.7383 45.7773 58.457L44.0664 58.2812C44.2461 57.4062 44.3633 56.6152 44.418 55.9082C44.4766 55.2012 44.5117 54.4258 44.5234 53.582H38.2891V52.2461H46.2109V53.2539ZM37.2812 59.5117H40.6914V55.8555H42.3672V59.5117H47.0898V60.8711H37.2812V59.5117ZM56.6992 62.1484H55.0234V51.3672H56.6992V62.1484ZM48.2148 55.1641H51.625V53.5938H48.2148V52.2461H53.3477V56.4883H49.9609V58.2812C50.793 58.2734 51.5547 58.2422 52.2461 58.1875C52.9375 58.1328 53.6367 58.0469 54.3438 57.9297L54.4844 59.2891C53.6914 59.4336 52.8906 59.5312 52.082 59.582C51.2773 59.6328 50.3164 59.6602 49.1992 59.6641H48.2148V55.1641Z" fill="#999999" fill-opacity="0.6"/>
<path fill-rule="evenodd" clip-rule="evenodd" d="M31.836 24.0011H26.164C25.3317 23.9942 24.5308 24.3181 23.9375 24.9018C23.3441 25.4854 23.0069 26.2808 23 27.1131V38.8911C23.0154 40.6234 24.4317 42.0155 26.164 42.0011H31.836C32.6683 42.008 33.4692 41.684 34.0625 41.1004C34.6559 40.5168 34.9931 39.7213 35 38.8891V27.1131C34.9931 26.2808 34.6559 25.4854 34.0625 24.9018C33.4692 24.3181 32.6683 23.9942 31.836 24.0011Z" stroke="#999999" stroke-opacity="0.6" stroke-width="1.5" stroke-linecap="round" stroke-linejoin="round"/>
<path fill-rule="evenodd" clip-rule="evenodd" d="M31.836 12.0012H26.164C24.4665 11.9541 23.0512 13.2898 23 14.9872V17.0152C23.0512 18.7126 24.4665 20.0483 26.164 20.0012H31.836C33.5335 20.0483 34.9488 18.7126 35 17.0152V14.9872C34.9488 13.2898 33.5335 11.9541 31.836 12.0012Z" stroke="#999999" stroke-opacity="0.6" stroke-width="1.5" stroke-linecap="round" stroke-linejoin="round"/>
<path fill-rule="evenodd" clip-rule="evenodd" d="M42.164 30.0013H47.834C48.6666 30.0088 49.468 29.685 50.0618 29.1014C50.6556 28.5177 50.9931 27.7219 51 26.8893V15.1133C50.9931 14.2811 50.6559 13.4856 50.0625 12.902C49.4692 12.3184 48.6683 11.9944 47.836 12.0013H42.164C41.3317 11.9944 40.5308 12.3184 39.9375 12.902C39.3441 13.4856 39.0069 14.2811 39 15.1133V26.8893C39.0069 27.7216 39.3441 28.517 39.9375 29.1006C40.5308 29.6843 41.3317 30.0083 42.164 30.0013Z" stroke="#999999" stroke-opacity="0.6" stroke-width="1.5" stroke-linecap="round" stroke-linejoin="round"/>
<path fill-rule="evenodd" clip-rule="evenodd" d="M42.164 42.0012H47.834C49.5323 42.0494 50.9488 40.7134 51 39.0152V36.9872C50.9488 35.2898 49.5335 33.9541 47.836 34.0012H42.164C40.4665 33.9541 39.0512 35.2898 39 36.9872V39.0132C39.0501 40.7114 40.4658 42.0483 42.164 42.0012Z" stroke="#999999" stroke-opacity="0.6" stroke-width="1.5" stroke-linecap="round" stroke-linejoin="round"/>
</svg>
