<svg width="74" height="74" viewBox="0 0 74 74" fill="none" xmlns="http://www.w3.org/2000/svg">
<path d="M19.8027 52.5156H21.7949V55.9375H25.2051V52.5156H27.1973V61H25.2051V57.5664H21.7949V61H19.8027V52.5156ZM36.4434 56.7578C36.4434 57.6641 36.2676 58.4473 35.916 59.1074C35.5684 59.7637 35.0879 60.2637 34.4746 60.6074C33.8652 60.9473 33.1777 61.1172 32.4121 61.1172C31.6426 61.1172 30.9531 60.9453 30.3438 60.6016C29.7344 60.2578 29.2539 59.7578 28.9023 59.1016C28.5547 58.4414 28.3809 57.6602 28.3809 56.7578C28.3809 55.8477 28.5547 55.0645 28.9023 54.4082C29.2539 53.752 29.7344 53.2539 30.3438 52.9141C30.9531 52.5703 31.6426 52.3984 32.4121 52.3984C33.1777 52.3984 33.8652 52.5703 34.4746 52.9141C35.0879 53.2539 35.5684 53.752 35.916 54.4082C36.2676 55.0645 36.4434 55.8477 36.4434 56.7578ZM30.4199 56.7578C30.4199 57.3125 30.5 57.7852 30.6602 58.1758C30.8203 58.5664 31.0488 58.8613 31.3457 59.0605C31.6426 59.2598 31.998 59.3594 32.4121 59.3594C32.8262 59.3594 33.1816 59.2598 33.4785 59.0605C33.7793 58.8613 34.0078 58.5664 34.1641 58.1758C34.3242 57.7852 34.4043 57.3125 34.4043 56.7578C34.4043 56.2031 34.3242 55.7305 34.1641 55.3398C34.0078 54.9492 33.7793 54.6543 33.4785 54.4551C33.1816 54.252 32.8262 54.1523 32.4121 54.1562C31.998 54.1523 31.6426 54.252 31.3457 54.4551C31.0488 54.6543 30.8203 54.9492 30.6602 55.3398C30.5 55.7305 30.4199 56.2031 30.4199 56.7578ZM40.0996 52.5156L42.291 57.8594H42.3848L44.5762 52.5156H47.0488V61H45.1035V55.7266H45.0332L42.9707 60.9531H41.7051L39.6426 55.7031H39.5723V61H37.627V52.5156H40.0996ZM48.3379 52.5156H54.209V54.1445H50.3301V55.9375H53.9043V57.5664H50.3301V59.3711H54.2207V61H48.3379V52.5156Z" fill="#FF6D00"/>
<path fill-rule="evenodd" clip-rule="evenodd" d="M32.4601 37.144V41.8751H31.4601V37.1343V37.1248L31.4605 37.1154C31.5729 34.1363 34.0435 31.7995 37.0001 31.8952C39.9567 31.7995 42.4273 34.1363 42.5397 37.1154L42.5401 37.1248V37.1343V41.8751H41.5401V37.144C41.4431 34.7033 39.4173 32.8097 37.0179 32.8952L37.0001 32.8958L36.9823 32.8952C34.5829 32.8097 32.5571 34.7033 32.4601 37.144ZM31.9601 41.8752H30.7001C26.6742 42.0186 23.2927 38.8384 23.1401 34.7649V20.5147M18.1001 23.9763L23.1401 20.5147L18.1001 23.9763ZM23.1401 20.5147L34.0937 12.9922C35.8629 11.8359 38.1373 11.8359 39.9065 12.9922L50.8601 20.5147M42.0401 41.8752H43.3001C47.326 42.0186 50.7075 38.8384 50.8601 34.7649V20.5147M55.9001 23.9742L50.8601 20.5147L55.9001 23.9742Z" fill="#D9D9D9"/>
<path d="M32.4601 41.8751V42.6251C32.8743 42.6251 33.2101 42.2894 33.2101 41.8751H32.4601ZM32.4601 37.144L31.7107 37.1142C31.7103 37.1241 31.7101 37.134 31.7101 37.144H32.4601ZM31.4601 41.8751H30.7101C30.7101 42.2894 31.0459 42.6251 31.4601 42.6251V41.8751ZM31.4601 37.1248L30.7106 37.0965C30.7103 37.106 30.7101 37.1154 30.7101 37.1248H31.4601ZM31.4605 37.1154L30.711 37.0871V37.0871L31.4605 37.1154ZM37.0001 31.8952L36.9758 32.6448C36.992 32.6454 37.0082 32.6454 37.0244 32.6448L37.0001 31.8952ZM42.5397 37.1154L43.2892 37.0871V37.0871L42.5397 37.1154ZM42.5401 37.1248H43.2901C43.2901 37.1154 43.2899 37.106 43.2896 37.0966L42.5401 37.1248ZM42.5401 41.8751V42.6251C42.9543 42.6251 43.2901 42.2894 43.2901 41.8751H42.5401ZM41.5401 41.8751H40.7901C40.7901 42.2894 41.1259 42.6251 41.5401 42.6251V41.8751ZM41.5401 37.144H42.2901C42.2901 37.134 42.2899 37.1241 42.2895 37.1142L41.5401 37.144ZM37.0179 32.8952L37.0446 33.6447H37.0446L37.0179 32.8952ZM37.0001 32.8958L36.9734 33.6454C36.9912 33.646 37.009 33.646 37.0268 33.6454L37.0001 32.8958ZM36.9823 32.8952L36.9556 33.6447H36.9556L36.9823 32.8952ZM31.9601 42.6252C32.3743 42.6252 32.7101 42.2894 32.7101 41.8752C32.7101 41.4609 32.3743 41.1252 31.9601 41.1252V42.6252ZM30.7001 41.8752V41.1252C30.6912 41.1252 30.6823 41.1253 30.6734 41.1256L30.7001 41.8752ZM23.1401 34.7649H22.3901C22.3901 34.7743 22.3903 34.7836 22.3906 34.793L23.1401 34.7649ZM23.8901 20.5147C23.8901 20.1004 23.5543 19.7647 23.1401 19.7647C22.7259 19.7647 22.3901 20.1004 22.3901 20.5147H23.8901ZM17.6755 23.3581C17.334 23.5926 17.2474 24.0595 17.4819 24.4009C17.7164 24.7423 18.1833 24.829 18.5247 24.5945L17.6755 23.3581ZM23.5647 21.1329C23.9061 20.8984 23.9928 20.4315 23.7583 20.09C23.5238 19.7486 23.0569 19.6619 22.7155 19.8964L23.5647 21.1329ZM22.7155 19.8964C22.3741 20.1309 22.2874 20.5978 22.5219 20.9392C22.7563 21.2807 23.2232 21.3674 23.5647 21.1329L22.7155 19.8964ZM34.0937 12.9922L33.6834 12.3643C33.6786 12.3675 33.6738 12.3707 33.6691 12.3739L34.0937 12.9922ZM39.9065 12.9922L40.3311 12.3739C40.3264 12.3707 40.3216 12.3675 40.3168 12.3643L39.9065 12.9922ZM50.4355 21.1329C50.777 21.3674 51.2438 21.2807 51.4783 20.9392C51.7128 20.5978 51.6261 20.1309 51.2847 19.8964L50.4355 21.1329ZM42.0401 41.1252C41.6259 41.1252 41.2901 41.4609 41.2901 41.8752C41.2901 42.2894 41.6259 42.6252 42.0401 42.6252V41.1252ZM43.3001 41.8752L43.3268 41.1256C43.3179 41.1253 43.309 41.1252 43.3001 41.1252V41.8752ZM50.8601 34.7649L51.6096 34.793C51.6099 34.7836 51.6101 34.7743 51.6101 34.7649H50.8601ZM51.6101 20.5147C51.6101 20.1004 51.2743 19.7647 50.8601 19.7647C50.4459 19.7647 50.1101 20.1004 50.1101 20.5147H51.6101ZM55.4757 24.5925C55.8172 24.8269 56.284 24.7401 56.5184 24.3986C56.7529 24.0571 56.666 23.5902 56.3245 23.3558L55.4757 24.5925ZM51.2845 19.8963C50.943 19.6619 50.4762 19.7487 50.2418 20.0902C50.0073 20.4317 50.0942 20.8986 50.4357 21.133L51.2845 19.8963ZM33.2101 41.8751V37.144H31.7101V41.8751H33.2101ZM31.4601 42.6251H32.4601V41.1251H31.4601V42.6251ZM30.7101 37.1343V41.8751H32.2101V37.1343H30.7101ZM30.7101 37.1248V37.1343H32.2101V37.1248H30.7101ZM30.711 37.0871L30.7106 37.0965L32.2096 37.1531L32.2099 37.1437L30.711 37.0871ZM37.0244 31.1456C33.647 31.0363 30.8387 33.7041 30.711 37.0871L32.2099 37.1437C32.3071 34.5686 34.44 32.5628 36.9758 32.6448L37.0244 31.1456ZM43.2892 37.0871C43.1615 33.7041 40.3532 31.0363 36.9758 31.1456L37.0244 32.6448C39.5602 32.5628 41.6931 34.5686 41.7903 37.1437L43.2892 37.0871ZM43.2896 37.0966L43.2892 37.0871L41.7903 37.1437L41.7906 37.1531L43.2896 37.0966ZM43.2901 37.1343V37.1248H41.7901V37.1343H43.2901ZM43.2901 41.8751V37.1343H41.7901V41.8751H43.2901ZM41.5401 42.6251H42.5401V41.1251H41.5401V42.6251ZM40.7901 37.144V41.8751H42.2901V37.144H40.7901ZM37.0446 33.6447C39.0232 33.5742 40.7097 35.1377 40.7907 37.1737L42.2895 37.1142C42.1764 34.2689 39.8113 32.0451 36.9912 32.1457L37.0446 33.6447ZM37.0268 33.6454L37.0446 33.6447L36.9912 32.1457L36.9734 32.1463L37.0268 33.6454ZM36.9556 33.6447L36.9734 33.6454L37.0268 32.1463L37.009 32.1457L36.9556 33.6447ZM33.2095 37.1737C33.2905 35.1377 34.977 33.5742 36.9556 33.6447L37.009 32.1457C34.1889 32.0451 31.8238 34.2689 31.7107 37.1142L33.2095 37.1737ZM31.9601 41.1252H30.7001V42.6252H31.9601V41.1252ZM30.6734 41.1256C27.0692 41.2541 24.027 38.4052 23.8896 34.7368L22.3906 34.793C22.5584 39.2715 26.2792 42.7832 30.7268 42.6247L30.6734 41.1256ZM23.8901 34.7649V20.5147H22.3901V34.7649H23.8901ZM18.5247 24.5945L23.5647 21.1329L22.7155 19.8964L17.6755 23.3581L18.5247 24.5945ZM23.5647 21.1329L34.5183 13.6104L33.6691 12.3739L22.7155 19.8964L23.5647 21.1329ZM34.504 13.62C36.0239 12.6267 37.9763 12.6267 39.4962 13.62L40.3168 12.3643C38.2984 11.0452 35.7018 11.0452 33.6834 12.3643L34.504 13.62ZM39.4819 13.6104L50.4355 21.1329L51.2847 19.8964L40.3311 12.3739L39.4819 13.6104ZM42.0401 42.6252H43.3001V41.1252H42.0401V42.6252ZM43.2734 42.6247C47.721 42.7832 51.4418 39.2715 51.6096 34.793L50.1106 34.7368C49.9732 38.4052 46.931 41.2541 43.3268 41.1256L43.2734 42.6247ZM51.6101 34.7649V20.5147H50.1101V34.7649H51.6101ZM56.3245 23.3558L51.2845 19.8963L50.4357 21.133L55.4757 24.5925L56.3245 23.3558Z" fill="#FF6D00"/>
<path d="M23.5 20.5L37.5 12.5L51 20.5V34C51 35 50 37 49.5 38.5C49 40 47.5 40 46 41C44.8 41.8 42.8333 42 42 42V36C42 34.5 40.5 32.5 37.5 32C35.1 31.6 33.1667 33.5 32.5 34.5C32.3333 37 31.7 42 30.5 42C24.9 41.6 23.5 36.8333 23.5 34.5V20.5Z" fill="#FF6D00" stroke="#FF6D00"/>
</svg>
