<svg width="44" height="44" viewBox="0 0 44 44" fill="none" xmlns="http://www.w3.org/2000/svg">
<path fill-rule="evenodd" clip-rule="evenodd" d="M12.4761 28.8085C10.8906 27.1895 9.81516 25.1407 9.38328 22.9162C8.94783 20.6854 9.17144 18.3761 10.0268 16.2703C10.8748 14.1764 12.3226 12.3797 14.1884 11.1058C17.974 8.52038 22.9576 8.52038 26.7431 11.1058C28.6089 12.3797 30.0567 14.1764 30.9048 16.2703C31.7601 18.3761 31.9837 20.6854 31.5483 22.9162C31.1164 25.1407 30.041 27.1895 28.4554 28.8085C26.3556 30.9633 23.4745 32.1786 20.4658 32.1786C17.4571 32.1786 14.5759 30.9633 12.4761 28.8085V28.8085Z" stroke="#FF6D00" stroke-width="1.5" stroke-linecap="round" stroke-linejoin="round"/>
<path d="M20.5445 13.8269C20.1326 13.8706 19.8341 14.2399 19.8777 14.6518C19.9214 15.0637 20.2907 15.3622 20.7026 15.3186L20.5445 13.8269ZM24.4484 17.5253C24.6099 17.9067 25.05 18.085 25.4314 17.9236C25.8129 17.7621 25.9912 17.322 25.8297 16.9405L24.4484 17.5253ZM29.1522 28.1018C28.8591 27.8091 28.3842 27.8096 28.0916 28.1027C27.7989 28.3959 27.7994 28.8707 28.0925 29.1634L29.1522 28.1018ZM34.3038 35.3637C34.597 35.6563 35.0719 35.6559 35.3645 35.3628C35.6571 35.0696 35.6567 34.5947 35.3636 34.3021L34.3038 35.3637ZM20.7026 15.3186C22.3008 15.1492 23.8218 16.0452 24.4484 17.5253L25.8297 16.9405C24.9456 14.8522 22.7996 13.588 20.5445 13.8269L20.7026 15.3186ZM28.0925 29.1634L34.3038 35.3637L35.3636 34.3021L29.1522 28.1018L28.0925 29.1634Z" fill="#FF6D00"/>
</svg>
