<svg width="29" height="29" viewBox="0 0 29 29" fill="none" xmlns="http://www.w3.org/2000/svg">
<path fill-rule="evenodd" clip-rule="evenodd" d="M16.734 10.289L14.4998 6.04175L12.2656 10.289C12.1078 10.5994 11.8793 10.8684 11.5986 11.0745C11.3166 11.2815 10.9902 11.4201 10.6453 11.4792L6.0415 12.3819L9.25567 16.2256C9.69523 16.7073 9.90264 17.3569 9.82359 18.0042L9.21217 22.9584L13.451 20.9042C13.778 20.7459 14.1365 20.6633 14.4998 20.6626C14.8407 20.6636 15.1764 20.7465 15.4786 20.9042L19.8165 22.8315L19.2051 17.9366C19.1278 17.2907 19.3356 16.6431 19.7742 16.1627L22.9582 12.3819L18.3544 11.4792C18.0091 11.4203 17.6823 11.2817 17.3998 11.0745C17.1196 10.8683 16.8915 10.5993 16.734 10.289Z" fill="#FFD600"/>
</svg>
